<?xml version="1.0" encoding="UTF-8"?><svg id="Layer_2" xmlns="http://www.w3.org/2000/svg" viewBox="0 0 466.03 466.03"><defs><style>.cls-1{fill:none;}.cls-2{fill:#d1191a;}.cls-3{fill:#fcfafb;stroke:#333;stroke-miterlimit:10;stroke-width:.75px;}</style></defs><g id="Layer_1-2"><g><g><circle class="cls-2" cx="232.34" cy="231.94" r="103.23"/><path class="cls-3" d="M375.27,96.39c-.97,11.94-9.48,38.23-50.12,90.7-1.44-2.79-3.03-5.5-4.75-8.11,25.37-34.98,33.91-58.58,26.37-63.96-6.22-4.43-14.98-5.07-59.3,32.04-17.76,14.88-39.77,32.28-68.81,63.73-29.85,32.34-4.98,2.49-69.65,77.11-27.28,31.48-29.53,51-29.28,58.96,.1,3.23,2.89,5.72,6.12,5.57,10.12-.47,28.86-10.62,55.22-31.34,3.56,2.21,7.29,4.2,11.14,6-46.17,38.33-76.44,51.22-87.99,52.86-6.17,.87-13.48-2.06-13.51-8.31-.02-12.94,8.43-40.05,51.67-94.1,15.05-18.81,34.28-40.87,58.86-66.74,28.58-30.07,52.64-53.01,72.89-70.5,52.06-45,78.68-53.76,90.95-54.35,5.82-.3,10.67,4.63,10.2,10.45Z"/></g><rect class="cls-1" width="466.03" height="466.03"/></g></g></svg>