<?xml version="1.0" encoding="UTF-8"?><svg id="Layer_2" xmlns="http://www.w3.org/2000/svg" viewBox="0 0 601.32 262.85"><defs><style>.cls-1{fill:#fefcfd;}.cls-2{fill:#d1191a;}.cls-3{fill:#d50712;}.cls-4{fill:#fcfafb;stroke:#333;stroke-miterlimit:10;stroke-width:.75px;}</style></defs><g id="Layer_1-2"><g><path class="cls-3" d="M466.88,196.44c-5.73,9.47-11.41,18.97-17.22,28.39-4.69,7.6-7.68,7.38-11.99-.38-4.49-8.1-9.24-16.05-13.91-24.04-.69-1.19-1.1-3.22-2.79-2.88-2.14,.43-1.53,2.64-1.54,4.16-.07,17.72-.01,35.45-.12,53.17-.04,6.62-3.11,8.97-8.2,6.7-3.12-1.39-3.04-4.12-3.05-6.81-.03-11.75-.02-23.5-.03-35.24,0-14.43-.06-28.85,.03-43.28,.02-3.16-.86-7.22,3.54-8.2,4.46-1,7.91,.88,10.19,5.09,5.17,9.6,10.52,19.1,15.82,28.64,1,1.8,2.11,3.54,3.13,5.32,2.12,3.7,3.85,3.57,5.96-.2,6.15-10.95,12.49-21.8,18.81-32.64,1.02-1.76,2.14-3.58,3.63-4.92,2.16-1.95,4.9-2.03,7.56-.95,2.45,.99,3.18,3.12,3.18,5.52,0,27.2,.01,54.41-.11,81.61-.02,4.05-1.51,7.48-6.49,7.21-4.7-.26-4.66-3.88-4.66-7.25,0-17.31,.02-34.63,.04-51.94,0-2.21,0-4.41,0-6.62-.59-.15-1.19-.3-1.78-.45Z"/><path class="cls-3" d="M239.35,261.77c-7.01,0-14.02-.09-21.03,.04-4.7,.08-6.83-2.14-6.83-6.7,0-26.76,0-53.52-.02-80.28,0-4.88,2.34-7.18,7.2-7.17,14.22,.04,28.45,.02,42.67,.03,4.05,0,6.86,1.52,6.89,6.06,.03,4.5-2.72,6.17-6.78,6.2-10.1,.07-20.21,.27-30.3,.02-5.22-.13-7.64,1.54-7.34,7.06,.31,5.55,.16,11.13,.01,16.69-.11,4.18,1.66,6.02,5.87,5.94,6.59-.13,13.19,.02,19.79-.04,3.8-.03,6.64,.99,6.36,5.5-.27,4.38-2.46,7.17-7.12,6.52-6.38-.89-12.76-.51-19.14-.61-3.84-.06-5.71,1.73-5.69,5.6,.02,5.77,.07,11.55-.08,17.32-.13,4.79,2.11,6.61,6.77,6.54,9.89-.15,19.79,0,29.69-.06,4-.02,7.83,.33,7.85,5.52,.02,5.06-3.73,5.8-7.74,5.81-7.01,.02-14.02,0-21.03,.01Z"/><path class="cls-3" d="M298.13,228.17c15.35,.04,15.26,.01,19.9-14.8,4.06-12.98,8.39-25.87,12.49-38.83,1.3-4.09,3.18-7.05,8.11-6.89,4.71,.15,5.3,3.57,6.4,7,8.33,25.88,16.81,51.72,25.13,77.6,.97,3.03,3.85,6.73-.89,9.14-4.19,2.13-8.56-.02-10.37-5.45-6.24-18.76-12.21-37.62-18.36-56.41-.52-1.59-.07-4.37-2.56-4.28-2.13,.08-2.3,2.64-2.87,4.33-2.82,8.39-5.75,16.76-8.25,25.25-1.22,4.12-2.72,7.29-7.64,7.41-1.45,.04-2.98,.67-2.99,2.5,0,1.57,1.42,1.79,2.62,2.1,3.8,.97,4.14,3.5,3.02,6.69-1.64,4.66-3.41,9.28-4.87,13.99-1.47,4.74-4.86,5.8-9.17,5.15-3.19-.48-4.87-2.35-3.83-5.66,1.1-3.53,2.43-7,3.77-10.45,1.5-3.88,.52-5.96-3.9-5.91-4.33,.05-8.66-.02-12.98,.04-4.6,.06-7.58-1.59-7.64-6.71-.06-5.26,3.35-5.93,7.47-5.82,2.47,.07,4.95,.01,7.42,.02Z"/><path class="cls-3" d="M143.2,221.56c0-11.54-.12-23.07,.06-34.61,.08-5.03-1.97-7.23-6.97-6.96-2.67,.15-5.35-.02-8.03-.02-3.67,0-5.81-1.55-5.96-5.47-.14-3.9,1.28-6.64,5.44-6.67,14.21-.12,28.42-.12,42.63,.02,3.13,.03,5.6,1.49,5.53,5.27-.07,3.73-1.34,6.46-5.56,6.74-1.44,.09-2.88,.12-4.32,.14q-11.36,.14-11.36,11.79c0,19.98,0,39.96,0,59.95,0,1.85,0,3.71-.15,5.56-.32,3.81-2.51,5.31-6.26,5.14-3.76-.17-4.99-2.31-4.99-5.66,0-11.74,0-23.48,0-35.23h-.06Z"/><g><path class="cls-1" d="M582.59,69.94c-7.63-.11-15.26,.15-22.88-.12-7.58-.27-11.28-4.06-11.65-11.61-.22-4.52-.22-9.08-.02-13.6,.32-7.28,3.63-10.48,10.82-10.63,5.15-.1,10.31-.02,15.46-.02,4.54,0,9.08,.18,13.6-.08,2.18-.12,5.87,1.5,6.21-1.56,.28-2.47-3.13-4.03-5.68-4.96-1.33-.48-2.82-.69-4.24-.7-9.69-.06-19.38-.2-29.07,.02-7.48,.17-12.07,4.36-13.6,11.86-1.59,7.78-.96,15.55,.05,23.36,1.4,10.85,5.85,15.13,16.96,15.34,7.63,.14,15.26-.09,22.88,.1,6.98,.17,9.62,2.88,9.82,9.91,.17,5.97,.12,11.96,.07,17.94-.07,7.84-2.46,10.37-10.34,10.5-8.86,.15-17.73-.12-26.59,.12-2.78,.07-7.68-1.65-7.93,1.57-.26,3.43,4.56,4.67,8.05,5.37,1.6,.32,3.28,.32,4.93,.33,7.83,.03,15.67,.07,23.5,0,10.29-.08,16.24-5.83,16.26-15.96,.01-7.21-.22-14.42-.58-21.62-.52-10.43-5.69-15.41-16.03-15.56Z"/><path class="cls-1" d="M601.02,86.15c-.68-12.4-7.45-18.55-20.01-18.7-6.8-.08-13.61,.05-20.41-.05-7.56-.1-9.86-2.41-10.08-10.06-.12-4.12,.05-8.25-.03-12.37-.12-6.15,3.07-9.23,8.96-9.47,5.56-.22,11.13-.05,16.69-.05,0-.07,0-.14,0-.2,5.57,0,11.13,.02,16.7-.02,1.44-.01,3.06-.07,3.71-1.65,.64-1.57-.47-2.73-1.45-3.8-3.39-3.75-7.83-5.44-12.69-5.56-8.86-.22-17.74-.35-26.59,.02-10.45,.43-16.12,6.43-16.51,17.05-.25,6.79-.19,13.61-.03,20.41,.26,10.43,6.72,16.72,17.25,16.89,7.42,.12,14.85-.07,22.27,.09,7.39,.16,10.43,3.07,11.01,10.5,.28,3.69,.16,7.42,.15,11.13-.03,12.08-1.94,14.02-13.96,14.07-9.28,.05-18.56,0-27.83,.05-1.62,0-3.57-.13-4.27,1.75-.69,1.83,.81,3.05,1.95,4.22,3.2,3.26,7.27,4.87,11.67,5,9.06,.26,18.15,.42,27.21,.06,8.82-.35,15.93-7.59,16.32-16.43,.33-7.61,.38-15.27-.04-22.88Zm-18.08,36.93c-7.83,.06-15.67,.03-23.5,0-1.64,0-3.32,0-4.93-.33-3.49-.7-8.31-1.93-8.05-5.37,.24-3.21,5.14-1.49,7.93-1.57,8.86-.23,17.73,.03,26.59-.12,7.88-.14,10.27-2.66,10.34-10.5,.05-5.98,.1-11.96-.07-17.94-.2-7.03-2.84-9.74-9.82-9.91-7.62-.19-15.26,.03-22.88-.1-11.1-.2-15.56-4.49-16.96-15.34-1.01-7.81-1.64-15.58-.05-23.36,1.53-7.5,6.12-11.7,13.6-11.86,9.68-.22,19.38-.08,29.07-.02,1.42,0,2.91,.22,4.24,.7,2.55,.93,5.96,2.48,5.68,4.96-.34,3.06-4.03,1.44-6.21,1.56-4.52,.26-9.07,.08-13.6,.08-5.15,0-10.31-.08-15.46,.02-7.19,.14-10.5,3.34-10.82,10.63-.2,4.53-.2,9.08,.02,13.6,.37,7.55,4.07,11.35,11.65,11.61,7.62,.27,15.26,0,22.88,.12,10.34,.15,15.51,5.14,16.03,15.56,.36,7.2,.59,14.41,.58,21.62-.02,10.14-5.97,15.89-16.26,15.96Z"/></g><g><path class="cls-1" d="M50.04,115.79c-9.68-.03-19.36,.06-29.04,.17-6.41,.07-10.04-2.43-9.94-8.26,.37-21.01-1.31-41.97-1.19-62.96,.04-7.4,3.39-11.2,10.87-11.6,8.59-.46,17.24,.08,25.86,.21,3.31,.05,8.6,2.41,9.32-.98,.72-3.4-4.66-5.27-8.21-5.95-9.98-1.91-20.13-1.51-30.13-.38-9.7,1.1-15.05,7.83-15.15,17.77-.11,9.89-.02,19.77-.02,32.14,.65,9.64-1.25,21.84,.94,33.9,1.71,9.4,6.23,13.14,15.6,13.23,8.03,.08,16.07,0,24.1,.01,2.69,0,5.37-.16,7.88-1.23,2.09-.89,4.86-1.92,4.42-4.44-.45-2.57-3.42-1.62-5.31-1.63Z"/><path class="cls-1" d="M53.33,114.43c-9.89-.06-19.79,0-29.68-.07-8.62-.06-11.12-2.4-11.28-10.97-.18-9.68-.04-19.37-.04-29.06h-.02c0-9.07-.04-18.14,.01-27.21,.05-9.54,2.2-11.74,11.58-11.79,10.1-.06,20.2,0,30.3-.05,1.63,0,3.53,.08,4.24-1.81,.66-1.74-.4-3.21-1.49-4.47-2.4-2.78-5.64-4-9.11-4.84-8.61-2.09-17.2,.28-25.82,.04C6.83,23.77-.48,30.74,.02,45.78c.69,20.8,.88,41.59,1.13,62.39,.12,10.49,7.17,17.14,17.77,17.39,8.03,.19,16.08,.06,24.11-.02,4.65-.05,9.01-1.23,12.55-4.42,1.47-1.33,3.62-2.7,2.68-5.07-.83-2.09-3.15-1.61-4.93-1.62Zm-2.39,7.42c-2.51,1.08-5.19,1.24-7.88,1.23-8.03,0-16.07,.07-24.1-.01-9.37-.09-13.89-3.83-15.6-13.23-2.19-12.06-.29-24.26-.94-33.9,0-12.37-.08-22.26,.02-32.14,.11-9.95,5.46-16.67,15.15-17.77,10-1.14,20.15-1.53,30.13,.38,3.54,.68,8.93,2.55,8.21,5.95-.72,3.4-6.01,1.04-9.32,.98-8.62-.13-17.27-.68-25.86-.21-7.48,.4-10.83,4.21-10.87,11.6-.12,20.99,1.56,41.95,1.19,62.96-.1,5.83,3.53,8.33,9.94,8.26,9.68-.11,19.36-.2,29.04-.17,1.9,0,4.86-.95,5.31,1.63,.44,2.52-2.34,3.55-4.42,4.44Z"/></g><g><path class="cls-1" d="M450.08,96.59c-.16-9.86,.35-19.7-.76-29.58-.84-7.52-.51-15.22-.08-22.8,.42-7.35,3.78-10.12,11.13-10.23,4.94-.07,9.88-.01,14.81-.01,4.32,0,8.65,.18,12.96-.07,2.46-.14,6.64,1.5,6.98-1.39,.35-2.93-3.58-4.57-6.62-5.45-1.16-.34-2.44-.42-3.66-.42-9.46-.03-18.93,.03-28.39-.03-5.54-.04-9.47,2.69-12.08,7.23-2.3,4-2.97,8.56-2.72,13.14,.91,16.63,1.37,33.27,1.18,49.92-.03,2.59-.42,5.95,3.48,6.03,4.41,.09,3.8-3.59,3.76-6.33Z"/><path class="cls-1" d="M265.78,69.94c-7.63-.11-15.26,.16-22.88-.12-8.41-.3-11.48-3.59-11.66-11.88-.1-4.33-.1-8.66-.02-12.99,.16-8.42,2.68-10.91,11.29-10.99,9.07-.09,18.14,.08,27.21-.08,2.45-.04,6.69,1.37,6.93-1.68,.29-3.58-3.88-4.75-7.19-5.4-1.2-.23-2.46-.21-3.7-.21-8.66-.02-17.32-.1-25.98,.02-9.93,.14-15.35,5.29-15.83,15.18-.28,5.76-.17,11.54-.06,17.31,.24,12.24,6.1,17.98,18.51,18.14,7.42,.1,14.85-.1,22.26,.09,7.01,.18,9.62,2.85,9.82,9.91,.18,6.39,.17,12.78,.05,19.17-.12,6.33-2.6,8.91-9.08,9.21-5.35,.25-10.72,.05-16.08,.05v.08c-5.77,0-11.54-.02-17.32,.02-1.2,0-2.74-.1-3.12,1.37-.36,1.42,1.01,2.09,2,2.79,2.95,2.09,6.28,3.09,9.87,3.1,8.86,.03,17.73,.2,26.59-.04,8.96-.24,14.14-5.39,14.44-14.4,.27-7.82,.31-15.68-.06-23.5-.44-9.49-6.5-15.04-16.01-15.18Z"/><path class="cls-1" d="M396.57,26.93c-3.1-.8-5.71,.1-7.45,2.95-1.07,1.76-2.15,3.51-3.17,5.3-6.67,11.61-13.28,23.25-20.01,34.83-3,5.17-4.29,5.17-7.35-.13-6.8-11.77-13.42-23.65-20.19-35.43-1.32-2.3-2.8-4.59-4.59-6.53-1.49-1.61-3.78-1.52-5.84-.98-1.77,.46-1.95,1.96-1.72,3.48,1.07,7.25-.93,14.36-.92,21.56,.03,20.61-.09,41.23,.11,61.84,.03,3.2-2.12,8.81,3.62,8.73,5.57-.08,3.49-5.63,3.52-8.87,.2-20.4,.09-40.81,.16-61.22,0-2.14-.78-5.2,1.94-5.91,2.54-.67,2.89,2.43,3.85,4.08,6.32,10.86,12.56,21.77,18.79,32.68,3.77,6.61,6.26,6.65,10.18-.07,3.42-5.87,6.69-11.83,10.06-17.73,3.07-5.37,6.16-10.72,9.29-16.05,.81-1.37,1.55-3.39,3.55-2.77,1.89,.59,1.52,2.7,1.6,4.3,.09,1.85,.04,3.71,.04,5.56,.01,19.99,0,39.99,.06,59.98,0,2.58-.5,5.97,3.36,6.17,4.42,.23,3.89-3.43,3.91-6.21,.07-13.81,.03-27.62,.03-41.43h.03c0-14.02,.03-28.03-.03-42.05,0-2.4,.41-5.25-2.84-6.1Z"/><path class="cls-1" d="M495.64,45.54c-3.87,.42-3.22,3.73-3.24,6.28-.09,9.07-.03,18.14-.03,27.21h-.02c0,8.45,.03,16.9,0,25.36-.04,9.22-2.46,11.64-11.8,11.62-8.04-.02-16.08-.44-24.11-.15-3.15,.11-8.94-2.05-9.01,1.67-.09,4.13,5.8,4.82,9.9,5.45,.61,.09,1.23,.08,1.85,.08,8.86,0,17.73,.15,26.59-.03,8.54-.18,13.58-5.42,13.91-14.09,.18-4.73,.46-9.46,.69-14.17,.72-14.6,1.32-29.23-.4-43.82-.31-2.63-.43-5.85-4.34-5.42Z"/><path class="cls-1" d="M400.81,74.9h-.04c0-14.64,.02-29.28-.02-43.92,0-2.4,.52-5.36-2.5-6.37-3.28-1.1-6.62-.79-9.11,2-1.22,1.36-2.14,3.01-3.08,4.6-6.51,10.99-12.92,22.04-19.49,33-3.86,6.44-4.97,6.44-8.8-.13-6.87-11.74-13.72-23.49-20.25-35.42-2.35-4.28-5.69-5.04-9.82-4.4-4.45,.69-3.63,4.35-3.71,7.31-.48,18.95-.2,37.91-.43,56.86-.12,10.06-1.29,20.11-.78,30.18,.24,4.78,2.11,7.3,7.22,6.94,5.02-.35,5.17-3.79,5.17-7.48,.02-19.59,.02-39.18,.1-58.76,0-1.72-.48-4.26,1.79-4.7,1.78-.34,2.36,2,3.15,3.36,5.26,9.1,10.41,18.26,15.69,27.35,4.13,7.1,8.59,7.19,12.79,.13,5.26-8.85,10.21-17.9,15.41-26.79,1.04-1.78,1.25-5.25,4.11-4.48,2.22,.6,1.27,3.61,1.28,5.56,.07,19.18,.03,38.35,.05,57.53,0,3.99-.31,8.13,5.59,8.31,6.12,.19,5.65-4.02,5.65-8.01,0-14.23,0-28.45,0-42.68Zm-1.38,.17h-.03c0,13.81,.04,27.62-.03,41.43-.01,2.78,.51,6.44-3.91,6.21-3.86-.2-3.35-3.59-3.36-6.17-.06-19.99-.05-39.99-.06-59.98,0-1.86,.04-3.71-.04-5.56-.08-1.6,.29-3.71-1.6-4.3-1.99-.63-2.74,1.39-3.55,2.77-3.13,5.33-6.22,10.68-9.29,16.05-3.37,5.9-6.64,11.86-10.06,17.73-3.92,6.72-6.41,6.68-10.18,.07-6.23-10.91-12.47-21.82-18.79-32.68-.96-1.65-1.32-4.74-3.85-4.08-2.72,.71-1.93,3.77-1.94,5.91-.07,20.41,.04,40.81-.16,61.22-.03,3.24,2.05,8.78-3.52,8.87-5.73,.08-3.59-5.53-3.62-8.73-.2-20.61-.08-41.22-.11-61.84-.01-7.2,1.99-14.32,.92-21.56-.23-1.52-.05-3.02,1.72-3.48,2.05-.53,4.35-.63,5.84,.98,1.79,1.94,3.27,4.22,4.59,6.53,6.77,11.79,13.39,23.66,20.19,35.43,3.06,5.3,4.34,5.3,7.35,.13,6.73-11.58,13.34-23.22,20.01-34.83,1.03-1.79,2.1-3.54,3.17-5.3,1.74-2.85,4.34-3.75,7.45-2.95,3.25,.84,2.83,3.7,2.84,6.1,.05,14.02,.03,28.03,.03,42.05Z"/><path class="cls-1" d="M264.02,67.44c-6.8-.07-13.61,.07-20.41-.04-7.47-.12-9.67-2.28-9.85-9.53-.11-4.33-.1-8.66-.01-12.99,.14-6.83,2.42-9.22,9.35-9.48,5.15-.2,10.31-.04,15.46-.04v-.07c5.77,0,11.55,.03,17.32-.02,1.42-.01,3.06,.08,3.83-1.45,.94-1.88-.51-3.08-1.61-4.27-3.27-3.53-7.54-5.19-12.17-5.3-9.07-.23-18.15-.36-27.21,.02-9.17,.39-15.15,5.54-16.6,14.54-1.41,8.76-1.7,17.68,.53,26.4,2.33,9.11,8.02,13.24,17.42,13.44,8.23,.18,16.45-.39,24.69,.87,5.44,.83,7.45,3.44,7.34,8.63-.11,5.14,.08,10.27,.65,15.42,.59,5.34-1.72,9.28-7.59,10.08-2.64,.36-5.32,.67-7.98,.7-8.86,.09-17.73,.03-26.6,.08-1.59,.01-3.62-.4-4.35,1.5-.79,2.04,.76,3.57,2.13,4.76,4.08,3.56,9.1,4.74,14.33,4.86,7.63,.16,15.26,.15,22.88,.04,11.36-.16,18.39-7.07,18.77-18.57,.21-6.59,.2-13.2-.01-19.79-.43-12.99-7.34-19.65-20.32-19.78Zm17.83,41.17c-.31,9-5.48,14.15-14.44,14.4-8.86,.24-17.73,.07-26.59,.04-3.6-.01-6.92-1.01-9.87-3.1-.99-.7-2.36-1.38-2-2.79,.37-1.47,1.92-1.36,3.12-1.37,5.77-.04,11.54-.02,17.32-.02v-.08c5.36,0,10.73,.2,16.08-.05,6.48-.31,8.96-2.88,9.08-9.21,.12-6.39,.13-12.78-.05-19.17-.19-7.06-2.81-9.73-9.82-9.91-7.42-.19-14.84,.01-22.26-.09-12.41-.16-18.27-5.9-18.51-18.14-.11-5.77-.22-11.55,.06-17.31,.48-9.89,5.91-15.03,15.83-15.18,8.66-.12,17.32-.04,25.98-.02,1.23,0,2.5-.02,3.7,.21,3.31,.65,7.48,1.81,7.19,5.4-.24,3.04-4.48,1.63-6.93,1.68-9.07,.16-18.14,0-27.21,.08-8.62,.08-11.14,2.57-11.29,10.99-.08,4.33-.08,8.66,.02,12.99,.19,8.29,3.25,11.57,11.66,11.88,7.62,.27,15.25,0,22.88,.12,9.5,.14,15.56,5.69,16.01,15.18,.37,7.82,.32,15.67,.06,23.5Z"/><path class="cls-1" d="M451.47,100.51c.29-6.16,1.43-12.4,.8-18.47-1.28-12.37-.37-24.72-.75-37.06-.19-6.14,3.05-9.27,8.93-9.47,7.82-.27,15.65-.64,23.46,.39,3.05,.4,6.16,.46,9.24,.49,1.85,.02,3.85-.19,4.59-2.36,.63-1.84-.65-3.09-1.71-4.36-3.28-3.92-7.59-5.52-12.58-5.54-8.25-.02-16.49-.09-24.74-.01-12.02,.11-18.21,6.25-18.42,18.39-.15,9.07-.03,18.14-.03,27.21h.04c0,10.1,0,20.2,0,30.31,0,3.76,1.74,5.76,5.64,5.71,3.49-.05,5.35-1.68,5.52-5.23Zm-8.64-3.63c.19-16.66-.27-33.29-1.18-49.92-.25-4.58,.42-9.14,2.72-13.14,2.6-4.54,6.54-7.26,12.08-7.23,9.46,.06,18.93,0,28.39,.03,1.22,0,2.5,.08,3.66,.42,3.03,.89,6.97,2.52,6.62,5.45-.35,2.89-4.52,1.24-6.98,1.39-4.31,.25-8.64,.07-12.96,.07-4.94,0-9.88-.06-14.81,.01-7.35,.11-10.71,2.88-11.13,10.23-.43,7.58-.77,15.29,.08,22.8,1.11,9.88,.6,19.72,.76,29.58,.04,2.73,.65,6.41-3.76,6.33-3.91-.08-3.51-3.44-3.48-6.03Z"/><path class="cls-1" d="M502.21,78.54c0-9.26,0-18.53,0-27.79,0-4.12-.03-8.14-5.86-7.99-5.48,.14-5.35,4.05-5.36,7.87,0,16.88,.02,33.76,0,50.64-.02,11.37-1.8,13.19-13.38,13.09-9.04-.08-18.1,.62-27.11-.97-2.29-.4-5.57-.97-6.51,1.91-.93,2.83,1.5,5.12,3.67,6.56,4.02,2.67,8.65,3.73,13.49,3.73,7.2,.01,14.41,.05,21.61,.02,13.15-.06,19.29-6.12,19.41-19.29,.09-9.26,.02-18.53,.02-27.79Zm-1.82,16.23c-.23,4.72-.51,9.45-.69,14.17-.33,8.66-5.37,13.91-13.91,14.09-8.86,.18-17.73,.04-26.59,.03-.62,0-1.24,0-1.85-.08-4.1-.63-9.99-1.32-9.9-5.45,.08-3.72,5.86-1.56,9.01-1.67,8.02-.29,16.07,.13,24.11,.15,9.34,.02,11.76-2.4,11.8-11.62,.03-8.45,0-16.9,0-25.36h.02c0-9.07-.05-18.14,.03-27.21,.02-2.55-.63-5.86,3.24-6.28,3.91-.42,4.03,2.79,4.34,5.42,1.72,14.59,1.12,29.22,.4,43.82Z"/></g><g><circle class="cls-2" cx="137.81" cy="73" r="51.35"/><path class="cls-4" d="M208.9,5.58c-.48,5.94-4.71,19.02-24.93,45.11-.72-1.39-1.51-2.73-2.36-4.03,12.62-17.4,16.86-29.14,13.11-31.81-3.09-2.2-7.45-2.52-29.5,15.94-8.83,7.4-19.78,16.05-34.22,31.7-14.85,16.08-2.47,1.24-34.64,38.35-13.57,15.66-14.69,25.36-14.56,29.32,.05,1.61,1.44,2.85,3.04,2.77,5.04-.24,14.35-5.28,27.47-15.59,1.77,1.1,3.63,2.09,5.54,2.98-22.96,19.07-38.02,25.47-43.76,26.29-3.07,.43-6.71-1.03-6.72-4.13-.01-6.43,4.19-19.92,25.7-46.81,7.49-9.35,17.05-20.33,29.27-33.2,14.22-14.96,26.18-26.37,36.25-35.06C184.49,5.03,197.73,.68,203.83,.38c2.9-.15,5.31,2.3,5.07,5.2Z"/></g></g></g></svg>